<?xml version="1.0" encoding="UTF-8"?>
<svg width="100mm" height="35mm" version="1.1" viewBox="0 0 100 35" xmlns="http://www.w3.org/2000/svg">
 <defs>
  <clipPath id="clipPath6">
   <rect x=".00048979" y="-.00060012" width="55.85" height="38.522" fill="#1e43a8" fill-opacity=".37232" stroke-width=".20182"/>
  </clipPath>
  <clipPath id="clipPath7">
   <rect x=".00048979" y="-.00060012" width="55.85" height="38.522" fill="#1e43a8" fill-opacity=".37232" stroke-width=".20182"/>
  </clipPath>
 </defs>
 <g transform="translate(4.8308 7.4112)">
  <g transform="translate(-.0053985)" stroke-width=".67262">
   <path transform="translate(38.226 -13.719)" d="m15.352 13.987v19.567h-4.137v-15.64h-0.11465l-4.4809 2.8089v-3.6688l4.844-3.0669zm11.733-0.26752q1.5096 0 2.9045 0.50637 1.4045 0.50637 2.5032 1.6147 1.1083 1.1083 1.7484 2.9427 0.64968 1.8248 0.65924 4.4809 0 2.4936-0.5637 4.4523-0.55414 1.9491-1.5956 3.3153t-2.5128 2.0828q-1.4713 0.70701-3.2866 0.70701-1.9586 0-3.4586-0.75478-1.5-0.76434-2.4172-2.0733-0.90765-1.3185-1.0987-2.9618h4.0796q0.23886 1.0701 1.0032 1.6624 0.76434 0.58281 1.8917 0.58281 1.9108 0 2.9045-1.6624 0.99364-1.672 1.0032-4.5765h-0.13376q-0.43949 0.85988-1.1847 1.4809-0.74523 0.61147-1.7102 0.94586-0.95542 0.3344-2.035 0.3344-1.7293 0-3.086-0.81211t-2.1401-2.2357q-0.78344-1.4236-0.78344-3.2484-0.0096-1.9682 0.90765-3.5064 0.9172-1.5382 2.5605-2.4077 1.6529-0.87898 3.8408-0.86943zm0.02866 3.2484q-0.96497 0-1.7198 0.4586-0.74523 0.4586-1.1847 1.2325-0.42994 0.77389-0.42038 1.7293 0 0.96497 0.42038 1.7389 0.42994 0.76434 1.1656 1.2229 0.74523 0.44905 1.7006 0.44905 0.71656 0 1.328-0.26752 0.61147-0.26752 1.0605-0.73567 0.4586-0.47771 0.71656-1.0987 0.25796-0.62102 0.25796-1.3185-0.0096-0.92676-0.43949-1.7006-0.42994-0.77389-1.1847-1.242t-1.7006-0.46816zm17.799 16.854q-2.0255 0-3.6115-0.74523-1.5764-0.74523-2.5032-2.0542-0.92676-1.3089-0.96497-3h4.0128q0.06688 1.1369 0.95542 1.844 0.88854 0.70701 2.1115 0.70701 0.97453 0 1.7198-0.42994 0.75478-0.43949 1.1752-1.2134 0.42994-0.78344 0.42994-1.7962 0-1.0319-0.43949-1.8153-0.42994-0.78344-1.1943-1.2229-0.76434-0.43949-1.7484-0.44905-0.85988 0-1.672 0.3535-0.80255 0.3535-1.2516 0.96497l-3.6784-0.65924 0.92676-10.319h11.962v3.3822h-8.551l-0.50637 4.9013h0.11465q0.51593-0.72612 1.5573-1.2038 1.0414-0.47771 2.3312-0.47771 1.7675 0 3.1529 0.83121 1.3854 0.83122 2.1879 2.2835 0.80255 1.4427 0.793 3.3249 0.0096 1.9777-0.9172 3.5159-0.9172 1.5287-2.5701 2.4077-1.6433 0.86943-3.8217 0.86943z" clip-path="url(#clipPath7)" fill="#303030" aria-label="195"/>
   <path transform="translate(-5.0503 -5.4811)" d="m4.9505 25.315v-14.675h3.9459v2.5605h0.15287q0.40128-1.3662 1.3471-2.0637 0.94586-0.70701 2.1784-0.70701 0.30573 0 0.65924 0.03822t0.62102 0.1051v3.6115q-0.28663-0.08599-0.793-0.15287t-0.92676-0.06688q-0.89809 0-1.6051 0.39172-0.69746 0.38217-1.1083 1.0701-0.40128 0.6879-0.40128 1.586v8.3026zm15.067-8.4841v8.4841h-4.0701v-14.675h3.879v2.5892h0.17198q0.48726-1.2803 1.6338-2.0255 1.1465-0.75478 2.7803-0.75478 1.5287 0 2.6656 0.66879t1.7675 1.9108q0.63058 1.2325 0.63058 2.9427v9.344h-4.0701v-8.6179q0.0096-1.3471-0.6879-2.1019-0.69746-0.76434-1.9204-0.76434-0.82166 0-1.4522 0.3535-0.62102 0.3535-0.97453 1.0319-0.34395 0.66879-0.3535 1.6147zm18.067 8.723q-1.672 0-3.0287-0.85988-1.3471-0.86943-2.1401-2.551-0.78344-1.6911-0.78344-4.1465 0-2.5223 0.81211-4.1943 0.81211-1.6815 2.1592-2.5128 1.3567-0.84077 2.9714-0.84077 1.2325 0 2.0542 0.42038 0.83122 0.41083 1.3376 1.0319 0.51593 0.61147 0.78344 1.2038h0.1242v-7.3567h4.0605v19.567h-4.0128v-2.3503h-0.17198q-0.28663 0.61147-0.81211 1.2134-0.51593 0.59236-1.3471 0.98408-0.82166 0.39172-2.0064 0.39172zm1.2898-3.2389q0.98408 0 1.6624-0.53503 0.6879-0.54459 1.051-1.5191 0.37261-0.97453 0.37261-2.2835t-0.36306-2.2739q-0.36306-0.96497-1.051-1.4905-0.6879-0.52548-1.672-0.52548-1.0032 0-1.6911 0.54459t-1.0414 1.5096q-0.3535 0.96497-0.3535 2.2357 0 1.2803 0.3535 2.2643 0.36306 0.97453 1.0414 1.5287 0.6879 0.54459 1.6911 0.54459z" clip-path="url(#clipPath6)" fill="#cfcfcf" aria-label="rnd"/>
  </g>
 </g>
</svg>
